<?xml version="1.0" encoding="UTF-8"?>
<svg id="_图层_2" data-name="图层 2" xmlns="http://www.w3.org/2000/svg" viewBox="0 0 256 256">
  <defs>
    <style>
      .cls-1 {
        stroke-width: 0px;
      }
    </style>
  </defs>
  <g id="_图层_1-2" data-name="图层 1">
    <path class="cls-1" d="M256,225.96v-33.94l-34.7-34.7,29.32-29.32-30.35-30.35,35.72-35.72V27.98l-52.69,52.69-13.58-13.58L256,.82v-.82h-33.12l-50.12,50.12L128,5.37l-29.24,29.24L64.15,0H30.21l51.58,51.58-12.83,12.83L4.55,0H0v29.39l51.99,51.99L5.37,128l45.03,45.03L0,223.43v32.57h1.37l66-66,12.98,12.98-53.02,53.02h33.94l36.05-36.05,30.68,30.68,46.62-46.62,51.99,51.99h29.39v-4.55l-64.41-64.41,12.75-12.75,51.67,51.67ZM90,167.37l9.87-9.87-16.97-16.97-9.87,9.87-22.4-22.4,23.99-23.99,52.35,52.35-23.99,23.99-12.98-12.98ZM128,205.37l-8.05-8.05,40.96-40.96-69.32-69.32,12.83-12.83,8.98,8.98,16.97-16.97-8.98-8.98,6.61-6.61,22.12,22.12-23.67,23.67,55.25,55.25-53.71,53.71ZM160.4,96.42l6.7-6.7,38.28,38.28-6.7,6.7-38.28-38.28Z"/>
  </g>
</svg>